HIERARCHY
ROOT Hips
{
	OFFSET 0.00000 0.00000 0.00000
	CHANNELS 6 Xposition Yposition Zposition Zrotation Yrotation Xrotation 
	JOINT LHipJoint
	{
		OFFSET 0 0 0
		CHANNELS 3 Zrotation Yrotation Xrotation
		JOINT LeftUpLeg
		{
			OFFSET 1.62964 -1.40469 0.78906
			CHANNELS 3 Zrotation Yrotation Xrotation
			JOINT LeftLeg
			{
				OFFSET 2.29640 -6.30932 0.00000
				CHANNELS 3 Zrotation Yrotation Xrotation
				JOINT LeftFoot
				{
					OFFSET 2.29451 -6.30412 0.00000
					CHANNELS 3 Zrotation Yrotation Xrotation
					JOINT LeftToeBase
					{
						OFFSET 0.03611 -0.09921 1.56387
						CHANNELS 3 Zrotation Yrotation Xrotation
						End Site
						{
							OFFSET 0.00000 -0.00000 0.80291
						}
					}
				}
			}
		}
	}
	JOINT RHipJoint
	{
		OFFSET 0 0 0
		CHANNELS 3 Zrotation Yrotation Xrotation
		JOINT RightUpLeg
		{
			OFFSET -1.73712 -1.40469 0.78906
			CHANNELS 3 Zrotation Yrotation Xrotation
			JOINT RightLeg
			{
				OFFSET -2.28137 -6.26801 0.00000
				CHANNELS 3 Zrotation Yrotation Xrotation
				JOINT RightFoot
				{
					OFFSET -2.28681 -6.28298 0.00000
					CHANNELS 3 Zrotation Yrotation Xrotation
					JOINT RightToeBase
					{
						OFFSET -0.15927 -0.43759 1.61103
						CHANNELS 3 Zrotation Yrotation Xrotation
						End Site
						{
							OFFSET -0.00000 -0.00000 0.84630
						}
					}
				}
			}
		}
	}
	JOINT LowerBack
	{
		OFFSET 0 0 0
		CHANNELS 3 Zrotation Yrotation Xrotation
		JOINT Spine
		{
			OFFSET -0.04227 2.04338 -0.00225
			CHANNELS 3 Zrotation Yrotation Xrotation
			JOINT Spine1
			{
				OFFSET -0.02148 2.04482 -0.04273
				CHANNELS 3 Zrotation Yrotation Xrotation
				JOINT Neck
				{
					OFFSET 0 0 0
					CHANNELS 3 Zrotation Yrotation Xrotation
					JOINT Neck1
					{
						OFFSET 0.09180 1.44629 0.19359
						CHANNELS 3 Zrotation Yrotation Xrotation
						JOINT Head
						{
							OFFSET 0.00887 1.40645 0.14750
							CHANNELS 3 Zrotation Yrotation Xrotation
							End Site
							{
								OFFSET -0.00669 1.50671 0.03707
							}
						}
					}
				}
				JOINT LeftShoulder
				{
					OFFSET 0 0 0
					CHANNELS 3 Zrotation Yrotation Xrotation
					JOINT LeftArm
					{
						OFFSET 2.17674 1.86763 -0.06520
						CHANNELS 3 Zrotation Yrotation Xrotation
						JOINT LeftForeArm
						{
							OFFSET 4.65776 -0.00000 0.00000
							CHANNELS 3 Zrotation Yrotation Xrotation
							JOINT LeftHand
							{
								OFFSET 3.55539 -0.00000 0.00000
								CHANNELS 3 Zrotation Yrotation Xrotation
								JOINT LeftFingerBase
								{
									OFFSET 0 0 0
									CHANNELS 3 Zrotation Yrotation Xrotation
									JOINT LeftHandIndex1
									{
										OFFSET 0.70726 -0.00000 0.00000
										CHANNELS 3 Zrotation Yrotation Xrotation
										End Site
										{
											OFFSET 0.57022 -0.00000 0.00000
										}
									}
								}
								JOINT LThumb
								{
									OFFSET 0 0 0
									CHANNELS 3 Zrotation Yrotation Xrotation
									End Site
									{
										OFFSET 0.57892 -0.00000 0.57892
									}
								}
							}
						}
					}
				}
				JOINT RightShoulder
				{
					OFFSET 0 0 0
					CHANNELS 3 Zrotation Yrotation Xrotation
					JOINT RightArm
					{
						OFFSET -2.80694 1.55459 -0.32496
						CHANNELS 3 Zrotation Yrotation Xrotation
						JOINT RightForeArm
						{
							OFFSET -4.71925 -0.00000 -0.00000
							CHANNELS 3 Zrotation Yrotation Xrotation
							JOINT RightHand
							{
								OFFSET -3.56990 -0.00000 0.00000
								CHANNELS 3 Zrotation Yrotation Xrotation
								JOINT RightFingerBase
								{
									OFFSET 0 0 0
									CHANNELS 3 Zrotation Yrotation Xrotation
									JOINT RightHandIndex1
									{
										OFFSET -0.50776 -0.00000 0.00000
										CHANNELS 3 Zrotation Yrotation Xrotation
										End Site
										{
											OFFSET -0.40937 -0.00000 0.00000
										}
									}
								}
								JOINT RThumb
								{
									OFFSET 0 0 0
									CHANNELS 3 Zrotation Yrotation Xrotation
									End Site
									{
										OFFSET -0.41562 -0.00000 0.41562
									}
								}
							}
						}
					}
				}
			}
		}
	}
}
MOTION
Frames: 13
Frame Time: .0083333
9.5079 16.3984 3.3745 177.9160 -1.1127 -161.3040 0.0000 0.0000 0.0000 -10.2192 -21.5402 -66.6182 19.8793 19.9997 89.6472 0.6585 -1.6352 -14.8587 1.4689 -7.6590 -21.6830 0.0000 0.0000 0.0000 20.7454 13.2948 -16.0515 -0.2347 -3.1181 8.6077 -0.8462 1.0514 -17.0596 -2.3800 9.6163 -27.7430 -5.3565 -1.3351 -18.9558 0.0606 -0.5239 2.9732 2.9589 -0.6920 14.1617 -1.3109 -1.0785 -1.9498 3.8123 -3.5876 19.5512 1.1558 -2.1157 6.3305 0.0000 -0.0000 0.0000 -84.4900 1.1221 16.7486 10.5493 -17.5941 -1.6371 -0.0000 -0.0000 7.2185 20.6924 -12.3065 -4.6028 -7.1250 0.0000 -0.0000 -4.5410 16.8794 3.0365 0.0000 -0.0000 0.0000 88.6692 -2.2037 10.9167 -25.2581 36.4666 -8.4428 0.0000 -0.0000 -3.4412 -11.1059 -56.4735 9.2936 7.1250 -0.0000 -0.0000 80.8113 -76.0069 -66.3058
9.5089 16.4000 3.3071 177.8660 -1.0370 -161.2380 0.0000 0.0000 0.0000 -9.7504 -21.7703 -67.8382 19.6918 19.9977 89.0990 0.7015 -1.6596 -15.3448 1.4051 -7.4981 -21.1996 0.0000 0.0000 0.0000 20.7457 13.2801 -15.8544 -0.2367 -3.1311 8.6439 -0.8727 1.1431 -17.3051 -2.3530 9.5655 -27.5810 -5.3752 -1.2938 -19.0373 -0.0220 -0.4481 3.0040 2.8987 -0.6575 14.2388 -1.1340 -0.9300 -1.5845 3.6582 -3.2692 18.9295 1.1056 -1.9474 6.0561 0.0000 -0.0000 0.0000 -84.4828 1.2784 15.8133 10.2508 -17.1309 -1.5480 -0.0000 -0.0000 8.0604 20.8805 -12.2276 -4.6191 -7.1250 0.0000 -0.0000 -4.4077 16.9458 2.9404 0.0000 -0.0000 0.0000 88.5998 -1.9571 11.3000 -25.4592 36.6697 -8.5626 0.0000 -0.0000 -3.7432 -11.1515 -55.7073 9.2500 7.1250 -0.0000 -0.0000 77.7129 -75.9600 -63.2240
9.5120 16.4041 3.2528 177.8590 -0.8691 -161.1800 0.0000 0.0000 0.0000 -9.2260 -21.8492 -69.0799 19.4737 19.9934 88.4610 0.7279 -1.3929 -15.7055 1.5118 -7.7651 -22.0030 0.0000 0.0000 0.0000 20.7381 13.5196 -15.6677 -0.2382 -3.1408 8.6709 -0.8879 1.0371 -17.4883 -2.3919 9.6387 -27.8146 -5.4166 -1.2499 -18.9228 -0.0511 -0.3849 2.9726 2.9091 -0.6273 14.1275 -1.7246 -0.9945 -2.5290 4.0976 -3.5852 20.3111 1.3046 -2.1289 6.6850 -0.0000 -0.0000 0.0000 -84.5035 1.5507 15.0003 9.9824 -16.7120 -1.4699 -0.0000 -0.0000 8.8639 21.2228 -12.5588 -4.8266 -7.1250 0.0000 -0.0000 -4.1814 16.5625 2.8236 -0.0000 -0.0000 0.0000 88.4194 -1.6583 11.7134 -25.5323 36.7432 -8.6064 0.0000 -0.0000 -3.9608 -11.1473 -54.3917 9.1017 7.1250 -0.0000 -0.0000 72.4926 -75.7518 -57.9992
9.5098 16.4037 3.1895 177.8420 -0.7449 -161.1090 0.0000 0.0000 0.0000 -8.8033 -21.9316 -70.0547 19.1442 19.9824 87.4970 0.7459 -1.2181 -15.9490 1.4892 -7.7095 -21.8350 0.0000 0.0000 0.0000 20.7591 13.5480 -15.3934 -0.2304 -3.0892 8.5271 -0.9053 1.0554 -17.6578 -2.5028 9.8429 -28.4696 -5.3815 -1.1668 -19.0021 -0.1151 -0.2682 3.0005 2.8522 -0.5702 14.1955 -1.7508 -0.9149 -2.1269 4.1732 -3.4069 19.7498 1.3531 -2.0319 6.4302 -0.0000 0.0000 0.0000 -84.4578 1.8132 14.5725 9.8270 -16.4685 -1.4255 -0.0000 -0.0000 9.2853 21.5465 -13.0174 -5.0824 -7.1250 0.0000 -0.0000 -3.9755 16.0437 2.7286 -0.0000 0.0000 0.0000 88.3302 -1.3573 12.0250 -25.6783 36.8893 -8.6938 0.0000 -0.0000 -4.2605 -11.5788 -54.4542 9.4644 7.1250 -0.0000 -0.0000 72.6185 -75.9267 -58.3122
9.5041 16.4005 3.1218 177.8730 -0.6953 -161.0480 0.0000 0.0000 0.0000 -8.3997 -22.0482 -70.8431 18.7495 19.9625 86.3417 0.7654 -1.0804 -16.1986 1.4398 -7.5861 -21.4639 0.0000 0.0000 0.0000 20.8590 13.3608 -15.1781 -0.2273 -3.0686 8.4697 -0.9355 1.3120 -17.8850 -2.5304 9.8930 -28.6309 -5.2623 -1.1015 -19.1170 -0.1621 -0.1927 3.0769 2.7540 -0.5283 14.3457 -1.7766 -0.9584 -2.0801 4.1682 -3.4298 19.5703 1.3563 -2.0380 6.3658 0.0000 0.0000 0.0000 -84.4424 1.9485 14.1619 9.6718 -16.2246 -1.3818 -0.0000 -0.0000 9.6308 21.8636 -13.2425 -5.2517 -7.1250 0.0000 -0.0000 -3.7667 15.7719 2.6067 0.0000 0.0000 0.0000 88.2619 -0.9988 12.3885 -25.7973 37.0078 -8.7654 0.0000 -0.0000 -4.5641 -12.2194 -54.6439 10.0164 7.1250 -0.0000 -0.0000 73.2205 -76.2042 -59.1890
9.5030 16.3985 3.0587 177.8080 -0.6462 -161.0710 0.0000 0.0000 0.0000 -8.1187 -22.1710 -71.5191 18.3523 19.9348 85.1774 0.7755 -0.8182 -16.3833 1.5157 -7.7747 -22.0317 0.0000 0.0000 0.0000 20.8466 13.3191 -14.9726 -0.2362 -3.1276 8.6343 -0.9718 1.4039 -18.2130 -2.4938 9.8267 -28.4174 -5.3069 -1.0757 -19.0029 -0.2263 -0.1442 3.1396 2.7212 -0.5076 14.3475 -1.6631 -0.9950 -2.2105 3.9259 -3.4562 19.7146 1.2561 -2.0582 6.4303 -0.0000 -0.0000 0.0000 -84.4295 2.1160 13.6402 9.5045 -15.9608 -1.3355 -0.0000 -0.0000 10.1139 22.2245 -13.6878 -5.5225 -7.1250 0.0000 -0.0000 -3.5400 15.2589 2.4883 -0.0000 -0.0000 0.0000 88.1656 -0.5912 12.8337 -25.8706 37.0807 -8.8095 0.0000 -0.0000 -4.6767 -11.5468 -56.7480 9.6954 7.1250 -0.0000 -0.0000 81.9209 -76.1781 -67.5936
9.5061 16.3972 2.9977 177.6370 -0.4746 -161.1410 0.0000 0.0000 0.0000 -7.9987 -22.1686 -72.1296 17.9604 19.9000 84.0272 0.7829 -0.6221 -16.5219 1.5958 -7.9679 -22.6166 0.0000 0.0000 0.0000 20.6925 13.5449 -14.6114 -0.2416 -3.1633 8.7337 -0.9970 1.2059 -18.5075 -2.4410 9.7298 -28.1061 -5.5343 -1.0180 -18.7989 -0.3474 -0.0129 3.1434 2.7530 -0.4580 14.2199 -1.5065 -1.0024 -1.7171 3.7137 -3.3662 19.1264 1.1776 -2.0135 6.1494 0.0000 0.0000 0.0000 -84.3784 2.3529 12.8038 9.2868 -15.6163 -1.2762 -0.0000 -0.0000 10.8044 22.1334 -13.6931 -5.4997 -7.1250 0.0000 -0.0000 -3.6026 15.2631 2.5323 0.0000 0.0000 0.0000 88.0735 -0.3706 13.3012 -25.9976 37.2064 -8.8862 0.0000 -0.0000 -4.9008 -11.0152 -58.6712 9.4404 7.1250 -0.0000 -0.0000 89.6940 -75.9227 -75.1621
9.5053 16.3957 2.9328 177.5910 -0.3117 -161.1230 0.0000 0.0000 0.0000 -7.7553 -22.1394 -72.7019 17.5008 19.8496 82.6752 0.7852 -0.5210 -16.5776 1.6070 -7.9945 -22.6973 0.0000 0.0000 0.0000 20.6690 13.6823 -14.3247 -0.2436 -3.1760 8.7690 -1.0207 1.1760 -18.7394 -2.3628 9.5841 -27.6401 -5.5999 -0.9385 -18.7927 -0.4296 0.1173 3.1374 2.7368 -0.3998 14.1974 -1.7428 -1.1029 -2.3225 3.9051 -3.7112 20.3306 1.2400 -2.2103 6.6563 0.0000 0.0000 0.0000 -84.3497 2.5125 11.8710 9.0356 -15.2171 -1.2094 -0.0000 -0.0000 11.5210 21.5402 -12.9226 -5.0446 -7.1250 0.0000 -0.0000 -3.9760 16.1451 2.7202 0.0000 0.0000 0.0000 87.9427 -0.1787 13.6951 -26.0570 37.2650 -8.9221 0.0000 -0.0000 -5.0605 -12.3750 -55.8684 10.2936 7.1250 -0.0000 -0.0000 78.2453 -76.4275 -64.2627
9.5018 16.3934 2.8670 177.5790 -0.3426 -161.0680 0.0000 0.0000 0.0000 -7.4485 -22.3012 -73.1689 16.9973 19.7824 81.1899 0.7944 -0.5557 -16.6649 1.5789 -7.9275 -22.4940 0.0000 0.0000 0.0000 20.7300 13.5527 -14.1026 -0.2454 -3.1878 8.8021 -1.0566 1.3903 -19.0150 -2.3015 9.4677 -27.2695 -5.5825 -0.9214 -18.7559 -0.4702 0.1380 3.1397 2.6871 -0.3864 14.1760 -1.3428 -0.9913 -1.7510 3.4561 -3.3931 19.5554 1.0627 -2.0486 6.2864 -0.0000 -0.0000 0.0000 -84.3273 2.7551 11.5057 8.9074 -15.0127 -1.1760 -0.0000 -0.0000 11.6598 21.2689 -12.5392 -4.8307 -7.1250 0.0000 -0.0000 -4.1488 16.5789 2.7999 -0.0000 -0.0000 0.0000 87.8332 0.2462 13.9871 -25.9440 37.1533 -8.8538 0.0000 -0.0000 -4.9494 -11.7249 -55.3426 9.6880 7.1250 -0.0000 -0.0000 76.1553 -76.1281 -61.9071
9.5009 16.3893 2.8008 177.5360 -0.3609 -161.1030 0.0000 0.0000 0.0000 -7.1985 -22.4159 -73.4934 16.4975 19.7033 79.7106 0.8030 -0.7328 -16.7017 1.2975 -7.2168 -20.3592 0.0000 0.0000 0.0000 20.7897 13.4474 -13.7812 -0.2466 -3.1958 8.8243 -1.0921 1.5034 -19.3105 -2.3382 9.5376 -27.4921 -5.6461 -0.9228 -18.5677 -0.4847 0.1406 3.1597 2.7069 -0.3876 14.0871 -1.5700 -1.0895 -2.1001 3.6111 -3.5702 19.8715 1.1329 -2.1375 6.4585 0.0000 0.0000 0.0000 -84.3232 2.9816 11.2990 8.7702 -14.7935 -1.1407 -0.0000 -0.0000 11.5563 21.3611 -12.5915 -4.8734 -7.1250 0.0000 -0.0000 -4.0868 16.5146 2.7636 0.0000 0.0000 0.0000 87.7368 0.6807 14.3070 -25.8540 37.0641 -8.7995 0.0000 -0.0000 -4.8097 -11.8422 -55.0944 9.7571 7.1250 -0.0000 -0.0000 75.1275 -76.1367 -60.9305
9.4989 16.3842 2.7296 177.5090 -0.1647 -161.1170 0.0000 0.0000 0.0000 -6.9843 -22.3204 -73.7387 15.9346 19.5990 78.0367 0.7960 -1.0279 -16.5416 0.8879 -6.0062 -16.8026 0.0000 0.0000 0.0000 20.8187 13.5413 -13.6090 -0.2631 -3.3000 9.1151 -1.1319 1.4889 -19.6716 -2.4499 9.7463 -28.1590 -5.7218 -0.8255 -18.6340 -0.5261 0.3030 3.2592 2.7523 -0.3234 14.2302 -1.7030 -0.9816 -2.0091 3.7903 -3.3807 19.5435 1.2282 -2.0303 6.3367 -0.0000 0.0000 0.0000 -84.3015 2.9121 10.6828 8.5345 -14.4155 -1.0813 -0.0000 -0.0000 12.0860 21.3736 -12.6015 -4.8803 -7.1250 0.0000 -0.0000 -4.0785 16.5028 2.7590 -0.0000 0.0000 0.0000 87.6995 1.0697 14.5513 -25.9733 37.1823 -8.8715 0.0000 -0.0000 -4.7123 -12.0268 -55.1814 9.9208 7.1250 -0.0000 -0.0000 75.4485 -76.2185 -61.3288
9.4947 16.3803 2.6624 177.3740 -0.0008 -161.0520 0.0000 0.0000 0.0000 -6.9203 -22.3175 -73.9743 15.3701 19.4781 76.3491 0.7753 -1.3358 -16.2371 0.8597 -5.9125 -16.5309 0.0000 0.0000 0.0000 20.6685 13.7366 -13.4582 -0.2817 -3.4137 9.4328 -1.1883 1.5449 -20.1547 -2.3783 9.6131 -27.7328 -5.8630 -0.7289 -18.7334 -0.6343 0.4877 3.3291 2.7659 -0.2513 14.3567 -1.8577 -1.1183 -2.5592 3.9264 -3.6578 20.1865 1.2693 -2.1678 6.6517 -0.0000 0.0000 0.0000 -84.2987 2.8385 9.6371 8.3605 -14.1356 -1.0384 -0.0000 -0.0000 13.0703 21.1027 -12.3758 -4.7283 -7.1250 0.0000 -0.0000 -4.2582 16.7680 2.8566 -0.0000 0.0000 0.0000 87.7375 1.3920 14.7726 -26.2053 37.4107 -9.0121 0.0000 -0.0000 -4.7419 -11.9318 -55.4967 9.8785 7.1250 -0.0000 -0.0000 76.7537 -76.2244 -62.5912
9.4924 16.3786 2.5992 177.1610 0.0111 -161.0320 0.0000 0.0000 0.0000 -6.9767 -22.4650 -74.1249 14.8956 19.3635 74.9219 0.7450 -1.1698 -15.9525 1.3776 -7.4273 -20.9876 0.0000 0.0000 0.0000 20.4450 13.7356 -13.0958 -0.2774 -3.3875 9.3595 -1.2232 1.4287 -20.4865 -2.2088 9.2881 -26.7007 -6.0764 -0.6887 -18.6379 -0.7394 0.5965 3.3577 2.7998 -0.2152 14.3243 -1.5607 -1.0461 -2.2600 3.5486 -3.4584 19.8294 1.1179 -2.0719 6.4685 0.0000 -0.0000 0.0000 -84.2862 2.8655 8.9429 8.2681 -13.9865 -1.0159 -0.0000 -0.0000 13.5418 20.7622 -12.0039 -4.5083 -7.1250 0.0000 -0.0000 -4.4830 17.1934 2.9667 0.0000 -0.0000 0.0000 87.6952 1.6366 15.0595 -26.2873 37.4910 -9.0620 0.0000 -0.0000 -4.6980 -11.7291 -55.5973 9.7207 7.1250 -0.0000 -0.0000 77.1917 -76.1611 -62.9439
